<?xml version="1.0" encoding="UTF-8" standalone="no"?>
<!DOCTYPE svg PUBLIC "-//W3C//DTD SVG 1.1//EN"
 "http://www.w3.org/Graphics/SVG/1.1/DTD/svg11.dtd">
<!-- Generated by graphviz version 2.40.1 (20161225.0304)
 -->
<!-- Title: contests Pages: 1 -->
<svg width="833pt" height="982pt"
 viewBox="0.00 0.00 832.50 982.00" xmlns="http://www.w3.org/2000/svg" xmlns:xlink="http://www.w3.org/1999/xlink">
<g id="graph0" class="graph" transform="scale(1 1) rotate(0) translate(4 978)">
<title>contests</title>
<polygon fill="#ffffff" stroke="transparent" points="-4,4 -4,-978 828.5,-978 828.5,4 -4,4"/>
<!-- contests -->
<g id="node1" class="node">
<title>contests</title>
<polygon fill="#efefef" stroke="transparent" points="149.5,-375.5 149.5,-410.5 427.5,-410.5 427.5,-375.5 149.5,-375.5"/>
<polygon fill="none" stroke="#000000" points="149.5,-375.5 149.5,-410.5 427.5,-410.5 427.5,-375.5 149.5,-375.5"/>
<text text-anchor="start" x="191.2045" y="-388.3" font-family="Arial Bold" font-size="18.00" fill="#000000">contests</text>
<text text-anchor="start" x="258.2275" y="-388.3" font-family="Arial" font-size="14.00" fill="#000000">    </text>
<text text-anchor="start" x="292.4323" y="-388.3" font-family="Arial" font-size="14.00" fill="#666666">[BASE TABLE]</text>
<polygon fill="none" stroke="#000000" points="149.5,-345.5 149.5,-375.5 427.5,-375.5 427.5,-345.5 149.5,-345.5"/>
<text text-anchor="start" x="156.5" y="-356.9" font-family="Arial" font-size="14.00" fill="#000000">id </text>
<text text-anchor="start" x="171.2798" y="-356.9" font-family="Arial" font-size="14.00" fill="#666666">[bigint]</text>
<polygon fill="none" stroke="#000000" points="149.5,-315.5 149.5,-345.5 427.5,-345.5 427.5,-315.5 149.5,-315.5"/>
<text text-anchor="start" x="156.5" y="-326.9" font-family="Arial" font-size="14.00" fill="#000000">title </text>
<text text-anchor="start" x="182.1676" y="-326.9" font-family="Arial" font-size="14.00" fill="#666666">[varchar(255)]</text>
<polygon fill="none" stroke="#000000" points="149.5,-285.5 149.5,-315.5 427.5,-315.5 427.5,-285.5 149.5,-285.5"/>
<text text-anchor="start" x="156.5" y="-296.9" font-family="Arial" font-size="14.00" fill="#000000">start_at </text>
<text text-anchor="start" x="207.0708" y="-296.9" font-family="Arial" font-size="14.00" fill="#666666">[timestamp]</text>
<polygon fill="none" stroke="#000000" points="149.5,-255.5 149.5,-285.5 427.5,-285.5 427.5,-255.5 149.5,-255.5"/>
<text text-anchor="start" x="156.5" y="-266.9" font-family="Arial" font-size="14.00" fill="#000000">end_at </text>
<text text-anchor="start" x="203.1942" y="-266.9" font-family="Arial" font-size="14.00" fill="#666666">[timestamp]</text>
<polygon fill="none" stroke="#000000" points="149.5,-225.5 149.5,-255.5 427.5,-255.5 427.5,-225.5 149.5,-225.5"/>
<text text-anchor="start" x="156.5" y="-236.9" font-family="Arial" font-size="14.00" fill="#000000">submit_limit </text>
<text text-anchor="start" x="234.2672" y="-236.9" font-family="Arial" font-size="14.00" fill="#666666">[bigint]</text>
<polygon fill="none" stroke="#000000" points="149.5,-195.5 149.5,-225.5 427.5,-225.5 427.5,-195.5 149.5,-195.5"/>
<text text-anchor="start" x="156.5" y="-206.9" font-family="Arial" font-size="14.00" fill="#000000">slug </text>
<text text-anchor="start" x="186.0624" y="-206.9" font-family="Arial" font-size="14.00" fill="#666666">[varchar(255)]</text>
<polygon fill="none" stroke="#000000" points="149.5,-165.5 149.5,-195.5 427.5,-195.5 427.5,-165.5 149.5,-165.5"/>
<text text-anchor="start" x="156.284" y="-176.9" font-family="Arial" font-size="14.00" fill="#000000">tag_selection_logic </text>
<text text-anchor="start" x="279.2082" y="-176.9" font-family="Arial" font-size="14.00" fill="#666666">[enum(&#39;auto&#39;,&#39;manual&#39;)]</text>
<polygon fill="none" stroke="#000000" points="149.5,-135.5 149.5,-165.5 427.5,-165.5 427.5,-135.5 149.5,-135.5"/>
<text text-anchor="start" x="156.5" y="-146.9" font-family="Arial" font-size="14.00" fill="#000000">validator </text>
<text text-anchor="start" x="213.2854" y="-146.9" font-family="Arial" font-size="14.00" fill="#666666">[varchar(255)]</text>
<polygon fill="none" stroke="#000000" points="149.5,-105.5 149.5,-135.5 427.5,-135.5 427.5,-105.5 149.5,-105.5"/>
<text text-anchor="start" x="156.5" y="-116.9" font-family="Arial" font-size="14.00" fill="#000000">time_limit_per_task </text>
<text text-anchor="start" x="280.9488" y="-116.9" font-family="Arial" font-size="14.00" fill="#666666">[bigint]</text>
<polygon fill="none" stroke="#000000" points="149.5,-75.5 149.5,-105.5 427.5,-105.5 427.5,-75.5 149.5,-75.5"/>
<text text-anchor="start" x="156.5" y="-86.9" font-family="Arial" font-size="14.00" fill="#000000">created_at </text>
<text text-anchor="start" x="226.528" y="-86.9" font-family="Arial" font-size="14.00" fill="#666666">[timestamp]</text>
<polygon fill="none" stroke="#000000" points="149.5,-45.5 149.5,-75.5 427.5,-75.5 427.5,-45.5 149.5,-45.5"/>
<text text-anchor="start" x="156.5" y="-56.9" font-family="Arial" font-size="14.00" fill="#000000">updated_at </text>
<text text-anchor="start" x="230.4326" y="-56.9" font-family="Arial" font-size="14.00" fill="#666666">[timestamp]</text>
<polygon fill="none" stroke="#000000" stroke-width="3" points="148,-44.5 148,-412.5 429,-412.5 429,-44.5 148,-44.5"/>
</g>
<!-- submits -->
<g id="node2" class="node">
<title>submits</title>
<polygon fill="#efefef" stroke="transparent" points="43.5,-895.5 43.5,-930.5 532.5,-930.5 532.5,-895.5 43.5,-895.5"/>
<polygon fill="none" stroke="#000000" points="43.5,-895.5 43.5,-930.5 532.5,-930.5 532.5,-895.5 43.5,-895.5"/>
<text text-anchor="start" x="193.2155" y="-908.3" font-family="Arial Bold" font-size="18.00" fill="#000000">submits</text>
<text text-anchor="start" x="255.2165" y="-908.3" font-family="Arial" font-size="14.00" fill="#000000">    </text>
<text text-anchor="start" x="289.4213" y="-908.3" font-family="Arial" font-size="14.00" fill="#666666">[BASE TABLE]</text>
<polygon fill="none" stroke="#000000" points="43.5,-865.5 43.5,-895.5 532.5,-895.5 532.5,-865.5 43.5,-865.5"/>
<text text-anchor="start" x="50.5" y="-876.9" font-family="Arial" font-size="14.00" fill="#000000">id    </text>
<text text-anchor="start" x="95.594" y="-876.9" font-family="Arial" font-size="14.00" fill="#666666">[bigint]</text>
<polygon fill="none" stroke="#000000" points="43.5,-835.5 43.5,-865.5 532.5,-865.5 532.5,-835.5 43.5,-835.5"/>
<text text-anchor="start" x="50.5" y="-846.9" font-family="Arial" font-size="14.00" fill="#000000">url    </text>
<text text-anchor="start" x="100.2546" y="-846.9" font-family="Arial" font-size="14.00" fill="#666666">[varchar(255)]</text>
<polygon fill="none" stroke="#000000" points="43.5,-805.5 43.5,-835.5 532.5,-835.5 532.5,-805.5 43.5,-805.5"/>
<text text-anchor="start" x="50.5" y="-816.9" font-family="Arial" font-size="14.00" fill="#000000">score    </text>
<text text-anchor="start" x="118.9306" y="-816.9" font-family="Arial" font-size="14.00" fill="#666666">[bigint]</text>
<polygon fill="none" stroke="#000000" points="43.5,-775.5 43.5,-805.5 532.5,-805.5 532.5,-775.5 43.5,-775.5"/>
<text text-anchor="start" x="50.1022" y="-786.9" font-family="Arial" font-size="14.00" fill="#000000">language    </text>
<text text-anchor="start" x="141.8918" y="-786.9" font-family="Arial" font-size="14.00" fill="#666666">[enum(&#39;php&#39;,&#39;go&#39;,&#39;rust&#39;,&#39;javascript&#39;,&#39;csharp&#39;,&#39;cpp&#39;,&#39;ruby&#39;,&#39;python&#39;)]</text>
<polygon fill="none" stroke="#000000" points="43.5,-745.5 43.5,-775.5 532.5,-775.5 532.5,-745.5 43.5,-745.5"/>
<text text-anchor="start" x="50.5" y="-756.9" font-family="Arial" font-size="14.00" fill="#000000">message    </text>
<text text-anchor="start" x="141.4958" y="-756.9" font-family="Arial" font-size="14.00" fill="#666666">[varchar(255)]</text>
<polygon fill="none" stroke="#000000" points="43.5,-715.5 43.5,-745.5 532.5,-745.5 532.5,-715.5 43.5,-715.5"/>
<text text-anchor="start" x="50.5" y="-726.9" font-family="Arial" font-size="14.00" fill="#000000">status    </text>
<text text-anchor="start" x="122.0512" y="-726.9" font-family="Arial" font-size="14.00" fill="#666666">[varchar(255)]</text>
<polygon fill="none" stroke="#000000" points="43.5,-685.5 43.5,-715.5 532.5,-715.5 532.5,-685.5 43.5,-685.5"/>
<text text-anchor="start" x="50.5" y="-696.9" font-family="Arial" font-size="14.00" fill="#000000">task_num    </text>
<text text-anchor="start" x="145.3864" y="-696.9" font-family="Arial" font-size="14.00" fill="#666666">[bigint]</text>
<polygon fill="none" stroke="#000000" points="43.5,-655.5 43.5,-685.5 532.5,-685.5 532.5,-655.5 43.5,-655.5"/>
<text text-anchor="start" x="50.5" y="-666.9" font-family="Arial" font-size="14.00" fill="#000000">submited_at    </text>
<text text-anchor="start" x="160.9488" y="-666.9" font-family="Arial" font-size="14.00" fill="#666666">[timestamp]</text>
<polygon fill="none" stroke="#000000" points="43.5,-625.5 43.5,-655.5 532.5,-655.5 532.5,-625.5 43.5,-625.5"/>
<text text-anchor="start" x="50.5" y="-636.9" font-family="Arial" font-size="14.00" fill="#000000">completed_at    </text>
<text text-anchor="start" x="168.7314" y="-636.9" font-family="Arial" font-size="14.00" fill="#666666">[timestamp]</text>
<polygon fill="none" stroke="#000000" points="43.5,-595.5 43.5,-625.5 532.5,-625.5 532.5,-595.5 43.5,-595.5"/>
<text text-anchor="start" x="50.5" y="-606.9" font-family="Arial" font-size="14.00" fill="#000000">updated_at    </text>
<text text-anchor="start" x="154.7468" y="-606.9" font-family="Arial" font-size="14.00" fill="#666666">[timestamp]</text>
<polygon fill="none" stroke="#000000" points="43.5,-565.5 43.5,-595.5 532.5,-595.5 532.5,-565.5 43.5,-565.5"/>
<text text-anchor="start" x="50.5" y="-576.9" font-family="Arial" font-size="14.00" fill="#000000">contest_submits    </text>
<text text-anchor="start" x="185.8394" y="-576.9" font-family="Arial" font-size="14.00" fill="#666666">[bigint]</text>
<polygon fill="none" stroke="#000000" points="43.5,-535.5 43.5,-565.5 532.5,-565.5 532.5,-535.5 43.5,-535.5"/>
<text text-anchor="start" x="50.5" y="-546.9" font-family="Arial" font-size="14.00" fill="#000000">group_submits    </text>
<text text-anchor="start" x="176.5014" y="-546.9" font-family="Arial" font-size="14.00" fill="#666666">[bigint]</text>
</g>
<!-- submits&#45;&gt;contests -->
<g id="edge1" class="edge">
<title>submits:contest_submits&#45;&gt;contests:id</title>
<path fill="none" stroke="#000000" d="M542.4525,-578.902C568.7783,-569.3126 556.1236,-518.9483 532.5,-493 474.95,-429.7869 207.05,-520.2131 149.5,-457 120.6269,-425.2857 106.6111,-360.5 149.5,-360.5"/>
<polygon fill="#000000" stroke="#000000" points="542.3735,-578.9146 531.7866,-576.0569 537.4368,-579.7073 532.5,-580.5 532.5,-580.5 532.5,-580.5 537.4368,-579.7073 533.2134,-584.9431 542.3735,-578.9146 542.3735,-578.9146"/>
<text text-anchor="start" x="539.3235" y="-590.5" font-family="Arial" font-size="10.00" fill="#000000">FOREIGN KEY (contest_submits) REFERENCES contests (id)</text>
</g>
</g>
</svg>
