<?xml version="1.0" encoding="UTF-8" standalone="no"?>
<!DOCTYPE svg PUBLIC "-//W3C//DTD SVG 1.1//EN"
 "http://www.w3.org/Graphics/SVG/1.1/DTD/svg11.dtd">
<!-- Generated by graphviz version 2.40.1 (20161225.0304)
 -->
<!-- Title: groups Pages: 1 -->
<svg width="583pt" height="862pt"
 viewBox="0.00 0.00 583.00 862.00" xmlns="http://www.w3.org/2000/svg" xmlns:xlink="http://www.w3.org/1999/xlink">
<g id="graph0" class="graph" transform="scale(1 1) rotate(0) translate(4 858)">
<title>groups</title>
<polygon fill="#ffffff" stroke="transparent" points="-4,4 -4,-858 579,-858 579,4 -4,4"/>
<!-- groups -->
<g id="node1" class="node">
<title>groups</title>
<polygon fill="#efefef" stroke="transparent" points="171.5,-255.5 171.5,-290.5 405.5,-290.5 405.5,-255.5 171.5,-255.5"/>
<polygon fill="none" stroke="#000000" points="171.5,-255.5 171.5,-290.5 405.5,-290.5 405.5,-255.5 171.5,-255.5"/>
<text text-anchor="start" x="197.2075" y="-268.3" font-family="Arial Bold" font-size="18.00" fill="#000000">groups</text>
<text text-anchor="start" x="252.2245" y="-268.3" font-family="Arial" font-size="14.00" fill="#000000">    </text>
<text text-anchor="start" x="286.4293" y="-268.3" font-family="Arial" font-size="14.00" fill="#666666">[BASE TABLE]</text>
<polygon fill="none" stroke="#000000" points="171.5,-225.5 171.5,-255.5 405.5,-255.5 405.5,-225.5 171.5,-225.5"/>
<text text-anchor="start" x="178.5" y="-236.9" font-family="Arial" font-size="14.00" fill="#000000">id </text>
<text text-anchor="start" x="193.2798" y="-236.9" font-family="Arial" font-size="14.00" fill="#666666">[bigint]</text>
<polygon fill="none" stroke="#000000" points="171.5,-195.5 171.5,-225.5 405.5,-225.5 405.5,-195.5 171.5,-195.5"/>
<text text-anchor="start" x="178.5" y="-206.9" font-family="Arial" font-size="14.00" fill="#000000">name </text>
<text text-anchor="start" x="217.399" y="-206.9" font-family="Arial" font-size="14.00" fill="#666666">[varchar(255)]</text>
<polygon fill="none" stroke="#000000" points="171.5,-165.5 171.5,-195.5 405.5,-195.5 405.5,-165.5 171.5,-165.5"/>
<text text-anchor="start" x="178.5" y="-176.9" font-family="Arial" font-size="14.00" fill="#000000">role </text>
<text text-anchor="start" x="205.723" y="-176.9" font-family="Arial" font-size="14.00" fill="#666666">[varchar(255)]</text>
<polygon fill="none" stroke="#000000" points="171.5,-135.5 171.5,-165.5 405.5,-165.5 405.5,-135.5 171.5,-135.5"/>
<text text-anchor="start" x="178.5" y="-146.9" font-family="Arial" font-size="14.00" fill="#000000">year </text>
<text text-anchor="start" x="209.6164" y="-146.9" font-family="Arial" font-size="14.00" fill="#666666">[bigint]</text>
<polygon fill="none" stroke="#000000" points="171.5,-105.5 171.5,-135.5 405.5,-135.5 405.5,-105.5 171.5,-105.5"/>
<text text-anchor="start" x="178.4229" y="-116.9" font-family="Arial" font-size="14.00" fill="#000000">encrypted_password </text>
<text text-anchor="start" x="311.4579" y="-116.9" font-family="Arial" font-size="14.00" fill="#666666">[varchar(255)]</text>
<polygon fill="none" stroke="#000000" points="171.5,-75.5 171.5,-105.5 405.5,-105.5 405.5,-75.5 171.5,-75.5"/>
<text text-anchor="start" x="178.5" y="-86.9" font-family="Arial" font-size="14.00" fill="#000000">created_at </text>
<text text-anchor="start" x="248.528" y="-86.9" font-family="Arial" font-size="14.00" fill="#666666">[timestamp]</text>
<polygon fill="none" stroke="#000000" points="171.5,-45.5 171.5,-75.5 405.5,-75.5 405.5,-45.5 171.5,-45.5"/>
<text text-anchor="start" x="178.5" y="-56.9" font-family="Arial" font-size="14.00" fill="#000000">updated_at </text>
<text text-anchor="start" x="252.4326" y="-56.9" font-family="Arial" font-size="14.00" fill="#666666">[timestamp]</text>
<polygon fill="none" stroke="#000000" stroke-width="3" points="170,-44.5 170,-292.5 407,-292.5 407,-44.5 170,-44.5"/>
</g>
<!-- submits -->
<g id="node2" class="node">
<title>submits</title>
<polygon fill="#efefef" stroke="transparent" points="43.5,-775.5 43.5,-810.5 532.5,-810.5 532.5,-775.5 43.5,-775.5"/>
<polygon fill="none" stroke="#000000" points="43.5,-775.5 43.5,-810.5 532.5,-810.5 532.5,-775.5 43.5,-775.5"/>
<text text-anchor="start" x="193.2155" y="-788.3" font-family="Arial Bold" font-size="18.00" fill="#000000">submits</text>
<text text-anchor="start" x="255.2165" y="-788.3" font-family="Arial" font-size="14.00" fill="#000000">    </text>
<text text-anchor="start" x="289.4213" y="-788.3" font-family="Arial" font-size="14.00" fill="#666666">[BASE TABLE]</text>
<polygon fill="none" stroke="#000000" points="43.5,-745.5 43.5,-775.5 532.5,-775.5 532.5,-745.5 43.5,-745.5"/>
<text text-anchor="start" x="50.5" y="-756.9" font-family="Arial" font-size="14.00" fill="#000000">id    </text>
<text text-anchor="start" x="95.594" y="-756.9" font-family="Arial" font-size="14.00" fill="#666666">[bigint]</text>
<polygon fill="none" stroke="#000000" points="43.5,-715.5 43.5,-745.5 532.5,-745.5 532.5,-715.5 43.5,-715.5"/>
<text text-anchor="start" x="50.5" y="-726.9" font-family="Arial" font-size="14.00" fill="#000000">url    </text>
<text text-anchor="start" x="100.2546" y="-726.9" font-family="Arial" font-size="14.00" fill="#666666">[varchar(255)]</text>
<polygon fill="none" stroke="#000000" points="43.5,-685.5 43.5,-715.5 532.5,-715.5 532.5,-685.5 43.5,-685.5"/>
<text text-anchor="start" x="50.5" y="-696.9" font-family="Arial" font-size="14.00" fill="#000000">score    </text>
<text text-anchor="start" x="118.9306" y="-696.9" font-family="Arial" font-size="14.00" fill="#666666">[bigint]</text>
<polygon fill="none" stroke="#000000" points="43.5,-655.5 43.5,-685.5 532.5,-685.5 532.5,-655.5 43.5,-655.5"/>
<text text-anchor="start" x="50.1022" y="-666.9" font-family="Arial" font-size="14.00" fill="#000000">language    </text>
<text text-anchor="start" x="141.8918" y="-666.9" font-family="Arial" font-size="14.00" fill="#666666">[enum(&#39;php&#39;,&#39;go&#39;,&#39;rust&#39;,&#39;javascript&#39;,&#39;csharp&#39;,&#39;cpp&#39;,&#39;ruby&#39;,&#39;python&#39;)]</text>
<polygon fill="none" stroke="#000000" points="43.5,-625.5 43.5,-655.5 532.5,-655.5 532.5,-625.5 43.5,-625.5"/>
<text text-anchor="start" x="50.5" y="-636.9" font-family="Arial" font-size="14.00" fill="#000000">message    </text>
<text text-anchor="start" x="141.4958" y="-636.9" font-family="Arial" font-size="14.00" fill="#666666">[varchar(255)]</text>
<polygon fill="none" stroke="#000000" points="43.5,-595.5 43.5,-625.5 532.5,-625.5 532.5,-595.5 43.5,-595.5"/>
<text text-anchor="start" x="50.5" y="-606.9" font-family="Arial" font-size="14.00" fill="#000000">status    </text>
<text text-anchor="start" x="122.0512" y="-606.9" font-family="Arial" font-size="14.00" fill="#666666">[varchar(255)]</text>
<polygon fill="none" stroke="#000000" points="43.5,-565.5 43.5,-595.5 532.5,-595.5 532.5,-565.5 43.5,-565.5"/>
<text text-anchor="start" x="50.5" y="-576.9" font-family="Arial" font-size="14.00" fill="#000000">task_num    </text>
<text text-anchor="start" x="145.3864" y="-576.9" font-family="Arial" font-size="14.00" fill="#666666">[bigint]</text>
<polygon fill="none" stroke="#000000" points="43.5,-535.5 43.5,-565.5 532.5,-565.5 532.5,-535.5 43.5,-535.5"/>
<text text-anchor="start" x="50.5" y="-546.9" font-family="Arial" font-size="14.00" fill="#000000">submited_at    </text>
<text text-anchor="start" x="160.9488" y="-546.9" font-family="Arial" font-size="14.00" fill="#666666">[timestamp]</text>
<polygon fill="none" stroke="#000000" points="43.5,-505.5 43.5,-535.5 532.5,-535.5 532.5,-505.5 43.5,-505.5"/>
<text text-anchor="start" x="50.5" y="-516.9" font-family="Arial" font-size="14.00" fill="#000000">completed_at    </text>
<text text-anchor="start" x="168.7314" y="-516.9" font-family="Arial" font-size="14.00" fill="#666666">[timestamp]</text>
<polygon fill="none" stroke="#000000" points="43.5,-475.5 43.5,-505.5 532.5,-505.5 532.5,-475.5 43.5,-475.5"/>
<text text-anchor="start" x="50.5" y="-486.9" font-family="Arial" font-size="14.00" fill="#000000">updated_at    </text>
<text text-anchor="start" x="154.7468" y="-486.9" font-family="Arial" font-size="14.00" fill="#666666">[timestamp]</text>
<polygon fill="none" stroke="#000000" points="43.5,-445.5 43.5,-475.5 532.5,-475.5 532.5,-445.5 43.5,-445.5"/>
<text text-anchor="start" x="50.5" y="-456.9" font-family="Arial" font-size="14.00" fill="#000000">contest_submits    </text>
<text text-anchor="start" x="185.8394" y="-456.9" font-family="Arial" font-size="14.00" fill="#666666">[bigint]</text>
<polygon fill="none" stroke="#000000" points="43.5,-415.5 43.5,-445.5 532.5,-445.5 532.5,-415.5 43.5,-415.5"/>
<text text-anchor="start" x="50.5" y="-426.9" font-family="Arial" font-size="14.00" fill="#000000">group_submits    </text>
<text text-anchor="start" x="176.5014" y="-426.9" font-family="Arial" font-size="14.00" fill="#666666">[bigint]</text>
</g>
<!-- submits&#45;&gt;groups -->
<g id="edge1" class="edge">
<title>submits:group_submits&#45;&gt;groups:id</title>
<path fill="none" stroke="#000000" d="M287.6277,-405.5036C278.4415,-357.1695 199.2396,-389.0163 171.5,-337 151.3184,-299.1561 128.6111,-240.5 171.5,-240.5"/>
<polygon fill="#000000" stroke="#000000" points="287.6306,-405.5379 284.017,-415.8912 288.0653,-410.5189 288.5,-415.5 288.5,-415.5 288.5,-415.5 288.0653,-410.5189 292.983,-415.1088 287.6306,-405.5379 287.6306,-405.5379"/>
<text text-anchor="start" x="226.2435" y="-399.5" font-family="Arial" font-size="10.00" fill="#000000">FOREIGN KEY (group_submits) REFERENCES groups (id)</text>
</g>
</g>
</svg>
