<?xml version="1.0" encoding="UTF-8" standalone="no"?>
<!DOCTYPE svg PUBLIC "-//W3C//DTD SVG 1.1//EN"
 "http://www.w3.org/Graphics/SVG/1.1/DTD/svg11.dtd">
<!-- Generated by graphviz version 2.40.1 (20161225.0304)
 -->
<!-- Title: exp&#45;a Pages: 1 -->
<svg width="1068pt" height="1523pt"
 viewBox="0.00 0.00 1068.00 1523.00" xmlns="http://www.w3.org/2000/svg" xmlns:xlink="http://www.w3.org/1999/xlink">
<g id="graph0" class="graph" transform="scale(1 1) rotate(0) translate(4 1519)">
<title>exp&#45;a</title>
<polygon fill="#ffffff" stroke="transparent" points="-4,4 -4,-1519 1064,-1519 1064,4 -4,4"/>
<!-- contests -->
<g id="node1" class="node">
<title>contests</title>
<polygon fill="#efefef" stroke="transparent" points="188,-372.5 188,-407.5 496,-407.5 496,-372.5 188,-372.5"/>
<polygon fill="none" stroke="#000000" points="188,-372.5 188,-407.5 496,-407.5 496,-372.5 188,-372.5"/>
<text text-anchor="start" x="244.7045" y="-385.3" font-family="Arial Bold" font-size="18.00" fill="#000000">contests</text>
<text text-anchor="start" x="311.7275" y="-385.3" font-family="Arial" font-size="14.00" fill="#000000">    </text>
<text text-anchor="start" x="345.9323" y="-385.3" font-family="Arial" font-size="14.00" fill="#666666">[BASE TABLE]</text>
<polygon fill="none" stroke="#000000" points="188,-342.5 188,-372.5 496,-372.5 496,-342.5 188,-342.5"/>
<text text-anchor="start" x="195" y="-353.9" font-family="Arial" font-size="14.00" fill="#000000">id    </text>
<text text-anchor="start" x="240.094" y="-353.9" font-family="Arial" font-size="14.00" fill="#666666">[bigint]</text>
<polygon fill="none" stroke="#000000" points="188,-312.5 188,-342.5 496,-342.5 496,-312.5 188,-312.5"/>
<text text-anchor="start" x="195" y="-323.9" font-family="Arial" font-size="14.00" fill="#000000">title    </text>
<text text-anchor="start" x="250.9818" y="-323.9" font-family="Arial" font-size="14.00" fill="#666666">[varchar(255)]</text>
<polygon fill="none" stroke="#000000" points="188,-282.5 188,-312.5 496,-312.5 496,-282.5 188,-282.5"/>
<text text-anchor="start" x="195" y="-293.9" font-family="Arial" font-size="14.00" fill="#000000">start_at    </text>
<text text-anchor="start" x="275.885" y="-293.9" font-family="Arial" font-size="14.00" fill="#666666">[timestamp]</text>
<polygon fill="none" stroke="#000000" points="188,-252.5 188,-282.5 496,-282.5 496,-252.5 188,-252.5"/>
<text text-anchor="start" x="195" y="-263.9" font-family="Arial" font-size="14.00" fill="#000000">end_at    </text>
<text text-anchor="start" x="272.0084" y="-263.9" font-family="Arial" font-size="14.00" fill="#666666">[timestamp]</text>
<polygon fill="none" stroke="#000000" points="188,-222.5 188,-252.5 496,-252.5 496,-222.5 188,-222.5"/>
<text text-anchor="start" x="195" y="-233.9" font-family="Arial" font-size="14.00" fill="#000000">submit_limit    </text>
<text text-anchor="start" x="303.0814" y="-233.9" font-family="Arial" font-size="14.00" fill="#666666">[bigint]</text>
<polygon fill="none" stroke="#000000" points="188,-192.5 188,-222.5 496,-222.5 496,-192.5 188,-192.5"/>
<text text-anchor="start" x="195" y="-203.9" font-family="Arial" font-size="14.00" fill="#000000">slug    </text>
<text text-anchor="start" x="254.8766" y="-203.9" font-family="Arial" font-size="14.00" fill="#666666">[varchar(255)]</text>
<polygon fill="none" stroke="#000000" points="188,-162.5 188,-192.5 496,-192.5 496,-162.5 188,-162.5"/>
<text text-anchor="start" x="194.6269" y="-173.9" font-family="Arial" font-size="14.00" fill="#000000">tag_selection_logic    </text>
<text text-anchor="start" x="347.8653" y="-173.9" font-family="Arial" font-size="14.00" fill="#666666">[enum(&#39;auto&#39;,&#39;manual&#39;)]</text>
<polygon fill="none" stroke="#000000" points="188,-132.5 188,-162.5 496,-162.5 496,-132.5 188,-132.5"/>
<text text-anchor="start" x="195" y="-143.9" font-family="Arial" font-size="14.00" fill="#000000">validator    </text>
<text text-anchor="start" x="282.0996" y="-143.9" font-family="Arial" font-size="14.00" fill="#666666">[varchar(255)]</text>
<polygon fill="none" stroke="#000000" points="188,-102.5 188,-132.5 496,-132.5 496,-102.5 188,-102.5"/>
<text text-anchor="start" x="195" y="-113.9" font-family="Arial" font-size="14.00" fill="#000000">time_limit_per_task    </text>
<text text-anchor="start" x="349.763" y="-113.9" font-family="Arial" font-size="14.00" fill="#666666">[bigint]</text>
<polygon fill="none" stroke="#000000" points="188,-72.5 188,-102.5 496,-102.5 496,-72.5 188,-72.5"/>
<text text-anchor="start" x="195" y="-83.9" font-family="Arial" font-size="14.00" fill="#000000">created_at    </text>
<text text-anchor="start" x="295.3422" y="-83.9" font-family="Arial" font-size="14.00" fill="#666666">[timestamp]</text>
<polygon fill="none" stroke="#000000" points="188,-42.5 188,-72.5 496,-72.5 496,-42.5 188,-42.5"/>
<text text-anchor="start" x="195" y="-53.9" font-family="Arial" font-size="14.00" fill="#000000">updated_at    </text>
<text text-anchor="start" x="299.2468" y="-53.9" font-family="Arial" font-size="14.00" fill="#666666">[timestamp]</text>
</g>
<!-- groups -->
<g id="node2" class="node">
<title>groups</title>
<polygon fill="#efefef" stroke="transparent" points="600,-312.5 600,-347.5 864,-347.5 864,-312.5 600,-312.5"/>
<polygon fill="none" stroke="#000000" points="600,-312.5 600,-347.5 864,-347.5 864,-312.5 600,-312.5"/>
<text text-anchor="start" x="640.7075" y="-325.3" font-family="Arial Bold" font-size="18.00" fill="#000000">groups</text>
<text text-anchor="start" x="695.7245" y="-325.3" font-family="Arial" font-size="14.00" fill="#000000">    </text>
<text text-anchor="start" x="729.9293" y="-325.3" font-family="Arial" font-size="14.00" fill="#666666">[BASE TABLE]</text>
<polygon fill="none" stroke="#000000" points="600,-282.5 600,-312.5 864,-312.5 864,-282.5 600,-282.5"/>
<text text-anchor="start" x="607" y="-293.9" font-family="Arial" font-size="14.00" fill="#000000">id    </text>
<text text-anchor="start" x="652.094" y="-293.9" font-family="Arial" font-size="14.00" fill="#666666">[bigint]</text>
<polygon fill="none" stroke="#000000" points="600,-252.5 600,-282.5 864,-282.5 864,-252.5 600,-252.5"/>
<text text-anchor="start" x="607" y="-263.9" font-family="Arial" font-size="14.00" fill="#000000">name    </text>
<text text-anchor="start" x="676.2132" y="-263.9" font-family="Arial" font-size="14.00" fill="#666666">[varchar(255)]</text>
<polygon fill="none" stroke="#000000" points="600,-222.5 600,-252.5 864,-252.5 864,-222.5 600,-222.5"/>
<text text-anchor="start" x="607" y="-233.9" font-family="Arial" font-size="14.00" fill="#000000">role    </text>
<text text-anchor="start" x="664.5372" y="-233.9" font-family="Arial" font-size="14.00" fill="#666666">[varchar(255)]</text>
<polygon fill="none" stroke="#000000" points="600,-192.5 600,-222.5 864,-222.5 864,-192.5 600,-192.5"/>
<text text-anchor="start" x="607" y="-203.9" font-family="Arial" font-size="14.00" fill="#000000">year    </text>
<text text-anchor="start" x="668.4306" y="-203.9" font-family="Arial" font-size="14.00" fill="#666666">[bigint]</text>
<polygon fill="none" stroke="#000000" points="600,-162.5 600,-192.5 864,-192.5 864,-162.5 600,-162.5"/>
<text text-anchor="start" x="606.7658" y="-173.9" font-family="Arial" font-size="14.00" fill="#000000">encrypted_password    </text>
<text text-anchor="start" x="770.115" y="-173.9" font-family="Arial" font-size="14.00" fill="#666666">[varchar(255)]</text>
<polygon fill="none" stroke="#000000" points="600,-132.5 600,-162.5 864,-162.5 864,-132.5 600,-132.5"/>
<text text-anchor="start" x="607" y="-143.9" font-family="Arial" font-size="14.00" fill="#000000">created_at    </text>
<text text-anchor="start" x="707.3422" y="-143.9" font-family="Arial" font-size="14.00" fill="#666666">[timestamp]</text>
<polygon fill="none" stroke="#000000" points="600,-102.5 600,-132.5 864,-132.5 864,-102.5 600,-102.5"/>
<text text-anchor="start" x="607" y="-113.9" font-family="Arial" font-size="14.00" fill="#000000">updated_at    </text>
<text text-anchor="start" x="711.2468" y="-113.9" font-family="Arial" font-size="14.00" fill="#666666">[timestamp]</text>
</g>
<!-- submits -->
<g id="node3" class="node">
<title>submits</title>
<polygon fill="#efefef" stroke="transparent" points="292,-889.5 292,-924.5 781,-924.5 781,-889.5 292,-889.5"/>
<polygon fill="none" stroke="#000000" points="292,-889.5 292,-924.5 781,-924.5 781,-889.5 292,-889.5"/>
<text text-anchor="start" x="441.7155" y="-902.3" font-family="Arial Bold" font-size="18.00" fill="#000000">submits</text>
<text text-anchor="start" x="503.7165" y="-902.3" font-family="Arial" font-size="14.00" fill="#000000">    </text>
<text text-anchor="start" x="537.9213" y="-902.3" font-family="Arial" font-size="14.00" fill="#666666">[BASE TABLE]</text>
<polygon fill="none" stroke="#000000" points="292,-859.5 292,-889.5 781,-889.5 781,-859.5 292,-859.5"/>
<text text-anchor="start" x="299" y="-870.9" font-family="Arial" font-size="14.00" fill="#000000">id    </text>
<text text-anchor="start" x="344.094" y="-870.9" font-family="Arial" font-size="14.00" fill="#666666">[bigint]</text>
<polygon fill="none" stroke="#000000" points="292,-829.5 292,-859.5 781,-859.5 781,-829.5 292,-829.5"/>
<text text-anchor="start" x="299" y="-840.9" font-family="Arial" font-size="14.00" fill="#000000">url    </text>
<text text-anchor="start" x="348.7546" y="-840.9" font-family="Arial" font-size="14.00" fill="#666666">[varchar(255)]</text>
<polygon fill="none" stroke="#000000" points="292,-799.5 292,-829.5 781,-829.5 781,-799.5 292,-799.5"/>
<text text-anchor="start" x="299" y="-810.9" font-family="Arial" font-size="14.00" fill="#000000">score    </text>
<text text-anchor="start" x="367.4306" y="-810.9" font-family="Arial" font-size="14.00" fill="#666666">[bigint]</text>
<polygon fill="none" stroke="#000000" points="292,-769.5 292,-799.5 781,-799.5 781,-769.5 292,-769.5"/>
<text text-anchor="start" x="298.6022" y="-780.9" font-family="Arial" font-size="14.00" fill="#000000">language    </text>
<text text-anchor="start" x="390.3918" y="-780.9" font-family="Arial" font-size="14.00" fill="#666666">[enum(&#39;php&#39;,&#39;go&#39;,&#39;rust&#39;,&#39;javascript&#39;,&#39;csharp&#39;,&#39;cpp&#39;,&#39;ruby&#39;,&#39;python&#39;)]</text>
<polygon fill="none" stroke="#000000" points="292,-739.5 292,-769.5 781,-769.5 781,-739.5 292,-739.5"/>
<text text-anchor="start" x="299" y="-750.9" font-family="Arial" font-size="14.00" fill="#000000">message    </text>
<text text-anchor="start" x="389.9958" y="-750.9" font-family="Arial" font-size="14.00" fill="#666666">[varchar(255)]</text>
<polygon fill="none" stroke="#000000" points="292,-709.5 292,-739.5 781,-739.5 781,-709.5 292,-709.5"/>
<text text-anchor="start" x="299" y="-720.9" font-family="Arial" font-size="14.00" fill="#000000">status    </text>
<text text-anchor="start" x="370.5512" y="-720.9" font-family="Arial" font-size="14.00" fill="#666666">[varchar(255)]</text>
<polygon fill="none" stroke="#000000" points="292,-679.5 292,-709.5 781,-709.5 781,-679.5 292,-679.5"/>
<text text-anchor="start" x="299" y="-690.9" font-family="Arial" font-size="14.00" fill="#000000">task_num    </text>
<text text-anchor="start" x="393.8864" y="-690.9" font-family="Arial" font-size="14.00" fill="#666666">[bigint]</text>
<polygon fill="none" stroke="#000000" points="292,-649.5 292,-679.5 781,-679.5 781,-649.5 292,-649.5"/>
<text text-anchor="start" x="299" y="-660.9" font-family="Arial" font-size="14.00" fill="#000000">submited_at    </text>
<text text-anchor="start" x="409.4488" y="-660.9" font-family="Arial" font-size="14.00" fill="#666666">[timestamp]</text>
<polygon fill="none" stroke="#000000" points="292,-619.5 292,-649.5 781,-649.5 781,-619.5 292,-619.5"/>
<text text-anchor="start" x="299" y="-630.9" font-family="Arial" font-size="14.00" fill="#000000">completed_at    </text>
<text text-anchor="start" x="417.2314" y="-630.9" font-family="Arial" font-size="14.00" fill="#666666">[timestamp]</text>
<polygon fill="none" stroke="#000000" points="292,-589.5 292,-619.5 781,-619.5 781,-589.5 292,-589.5"/>
<text text-anchor="start" x="299" y="-600.9" font-family="Arial" font-size="14.00" fill="#000000">updated_at    </text>
<text text-anchor="start" x="403.2468" y="-600.9" font-family="Arial" font-size="14.00" fill="#666666">[timestamp]</text>
<polygon fill="none" stroke="#000000" points="292,-559.5 292,-589.5 781,-589.5 781,-559.5 292,-559.5"/>
<text text-anchor="start" x="299" y="-570.9" font-family="Arial" font-size="14.00" fill="#000000">contest_submits    </text>
<text text-anchor="start" x="434.3394" y="-570.9" font-family="Arial" font-size="14.00" fill="#666666">[bigint]</text>
<polygon fill="none" stroke="#000000" points="292,-529.5 292,-559.5 781,-559.5 781,-529.5 292,-529.5"/>
<text text-anchor="start" x="299" y="-540.9" font-family="Arial" font-size="14.00" fill="#000000">group_submits    </text>
<text text-anchor="start" x="425.0014" y="-540.9" font-family="Arial" font-size="14.00" fill="#666666">[bigint]</text>
</g>
<!-- submits&#45;&gt;contests -->
<g id="edge1" class="edge">
<title>submits:contest_submits&#45;&gt;contests:id</title>
<path fill="none" stroke="#000000" d="M282.0781,-572.9287C255.9306,-563.4952 269.4457,-513.8829 292,-487 351.175,-416.468 436.825,-521.532 496,-451 522.7092,-419.1647 537.5556,-357.5 496,-357.5"/>
<polygon fill="#000000" stroke="#000000" points="282.1231,-572.9358 291.2961,-578.9446 287.0615,-573.7179 292,-574.5 292,-574.5 292,-574.5 287.0615,-573.7179 292.7039,-570.0554 282.1231,-572.9358 282.1231,-572.9358"/>
<text text-anchor="start" x="6.8235" y="-584.5" font-family="Arial" font-size="10.00" fill="#000000">FOREIGN KEY (contest_submits) REFERENCES contests (id)</text>
</g>
<!-- submits&#45;&gt;groups -->
<g id="edge2" class="edge">
<title>submits:group_submits&#45;&gt;groups:id</title>
<path fill="none" stroke="#000000" d="M790.6787,-541.8429C802.4714,-533.1871 792.0121,-505.3059 781,-487 734.0609,-408.9714 646.9391,-469.0286 600,-391 578.5789,-355.391 558.4444,-297.5 600,-297.5"/>
<polygon fill="#000000" stroke="#000000" points="790.6432,-541.8526 779.8087,-540.1606 785.8216,-543.1763 781,-544.5 781,-544.5 781,-544.5 785.8216,-543.1763 782.1913,-548.8394 790.6432,-541.8526 790.6432,-541.8526"/>
<text text-anchor="start" x="788.4935" y="-554.5" font-family="Arial" font-size="10.00" fill="#000000">FOREIGN KEY (group_submits) REFERENCES groups (id)</text>
</g>
<!-- task_results -->
<g id="node4" class="node">
<title>task_results</title>
<polygon fill="#efefef" stroke="transparent" points="402,-1436.5 402,-1471.5 671,-1471.5 671,-1436.5 402,-1436.5"/>
<polygon fill="none" stroke="#000000" points="402,-1436.5 402,-1471.5 671,-1471.5 671,-1436.5 402,-1436.5"/>
<text text-anchor="start" x="424.7082" y="-1449.3" font-family="Arial Bold" font-size="18.00" fill="#000000">task_results</text>
<text text-anchor="start" x="520.7238" y="-1449.3" font-family="Arial" font-size="14.00" fill="#000000">    </text>
<text text-anchor="start" x="554.9286" y="-1449.3" font-family="Arial" font-size="14.00" fill="#666666">[BASE TABLE]</text>
<polygon fill="none" stroke="#000000" points="402,-1406.5 402,-1436.5 671,-1436.5 671,-1406.5 402,-1406.5"/>
<text text-anchor="start" x="409" y="-1417.9" font-family="Arial" font-size="14.00" fill="#000000">id    </text>
<text text-anchor="start" x="454.094" y="-1417.9" font-family="Arial" font-size="14.00" fill="#666666">[bigint]</text>
<polygon fill="none" stroke="#000000" points="402,-1376.5 402,-1406.5 671,-1406.5 671,-1376.5 402,-1376.5"/>
<text text-anchor="start" x="409" y="-1387.9" font-family="Arial" font-size="14.00" fill="#000000">request_per_sec    </text>
<text text-anchor="start" x="547.46" y="-1387.9" font-family="Arial" font-size="14.00" fill="#666666">[bigint]</text>
<polygon fill="none" stroke="#000000" points="402,-1346.5 402,-1376.5 671,-1376.5 671,-1346.5 402,-1346.5"/>
<text text-anchor="start" x="409" y="-1357.9" font-family="Arial" font-size="14.00" fill="#000000">status    </text>
<text text-anchor="start" x="480.5512" y="-1357.9" font-family="Arial" font-size="14.00" fill="#666666">[varchar(255)]</text>
<polygon fill="none" stroke="#000000" points="402,-1316.5 402,-1346.5 671,-1346.5 671,-1316.5 402,-1316.5"/>
<text text-anchor="start" x="409" y="-1327.9" font-family="Arial" font-size="14.00" fill="#000000">error_message    </text>
<text text-anchor="start" x="537.3254" y="-1327.9" font-family="Arial" font-size="14.00" fill="#666666">[varchar(255)]</text>
<polygon fill="none" stroke="#000000" points="402,-1286.5 402,-1316.5 671,-1316.5 671,-1286.5 402,-1286.5"/>
<text text-anchor="start" x="409" y="-1297.9" font-family="Arial" font-size="14.00" fill="#000000">url    </text>
<text text-anchor="start" x="458.7546" y="-1297.9" font-family="Arial" font-size="14.00" fill="#666666">[varchar(255)]</text>
<polygon fill="none" stroke="#000000" points="402,-1256.5 402,-1286.5 671,-1286.5 671,-1256.5 402,-1256.5"/>
<text text-anchor="start" x="409" y="-1267.9" font-family="Arial" font-size="14.00" fill="#000000">method    </text>
<text text-anchor="start" x="489.8864" y="-1267.9" font-family="Arial" font-size="14.00" fill="#666666">[varchar(255)]</text>
<polygon fill="none" stroke="#000000" points="402,-1226.5 402,-1256.5 671,-1256.5 671,-1226.5 402,-1226.5"/>
<text text-anchor="start" x="408.5309" y="-1237.9" font-family="Arial" font-size="14.00" fill="#000000">request_content_type    </text>
<text text-anchor="start" x="577.3499" y="-1237.9" font-family="Arial" font-size="14.00" fill="#666666">[varchar(255)]</text>
<polygon fill="none" stroke="#000000" points="402,-1196.5 402,-1226.5 671,-1226.5 671,-1196.5 402,-1196.5"/>
<text text-anchor="start" x="409" y="-1207.9" font-family="Arial" font-size="14.00" fill="#000000">request_body    </text>
<text text-anchor="start" x="528.0168" y="-1207.9" font-family="Arial" font-size="14.00" fill="#666666">[varchar(255)]</text>
<polygon fill="none" stroke="#000000" points="402,-1166.5 402,-1196.5 671,-1196.5 671,-1166.5 402,-1166.5"/>
<text text-anchor="start" x="409" y="-1177.9" font-family="Arial" font-size="14.00" fill="#000000">thread_num    </text>
<text text-anchor="start" x="517.8948" y="-1177.9" font-family="Arial" font-size="14.00" fill="#666666">[bigint]</text>
<polygon fill="none" stroke="#000000" points="402,-1136.5 402,-1166.5 671,-1166.5 671,-1136.5 402,-1136.5"/>
<text text-anchor="start" x="409" y="-1147.9" font-family="Arial" font-size="14.00" fill="#000000">attempt_count    </text>
<text text-anchor="start" x="531.906" y="-1147.9" font-family="Arial" font-size="14.00" fill="#666666">[bigint]</text>
<polygon fill="none" stroke="#000000" points="402,-1106.5 402,-1136.5 671,-1136.5 671,-1106.5 402,-1106.5"/>
<text text-anchor="start" x="409" y="-1117.9" font-family="Arial" font-size="14.00" fill="#000000">created_at    </text>
<text text-anchor="start" x="509.3422" y="-1117.9" font-family="Arial" font-size="14.00" fill="#666666">[timestamp]</text>
<polygon fill="none" stroke="#000000" points="402,-1076.5 402,-1106.5 671,-1106.5 671,-1076.5 402,-1076.5"/>
<text text-anchor="start" x="409" y="-1087.9" font-family="Arial" font-size="14.00" fill="#000000">deleted_at    </text>
<text text-anchor="start" x="508.5708" y="-1087.9" font-family="Arial" font-size="14.00" fill="#666666">[timestamp]</text>
<polygon fill="none" stroke="#000000" points="402,-1046.5 402,-1076.5 671,-1076.5 671,-1046.5 402,-1046.5"/>
<text text-anchor="start" x="409" y="-1057.9" font-family="Arial" font-size="14.00" fill="#000000">submit_task_results    </text>
<text text-anchor="start" x="566.8892" y="-1057.9" font-family="Arial" font-size="14.00" fill="#666666">[bigint]</text>
</g>
<!-- task_results&#45;&gt;submits -->
<g id="edge3" class="edge">
<title>task_results:submit_task_results&#45;&gt;submits:id</title>
<path fill="none" stroke="#000000" d="M536.4885,-1036.4769C526.0074,-939.9559 357.2911,-1057.4804 292,-968 267.5056,-934.4308 250.4444,-874.5 292,-874.5"/>
<polygon fill="#000000" stroke="#000000" points="536.4902,-1036.513 532.5058,-1046.7294 536.7451,-1041.5065 537,-1046.5 537,-1046.5 537,-1046.5 536.7451,-1041.5065 541.4942,-1046.2706 536.4902,-1036.513 536.4902,-1036.513"/>
<text text-anchor="start" x="544.165" y="-1056.5" font-family="Arial" font-size="10.00" fill="#000000">FOREIGN KEY (submit_task_results) REFERENCES submits (id)</text>
</g>
</g>
</svg>
