<?xml version="1.0" encoding="UTF-8" standalone="no"?>
<!DOCTYPE svg PUBLIC "-//W3C//DTD SVG 1.1//EN"
 "http://www.w3.org/Graphics/SVG/1.1/DTD/svg11.dtd">
<!-- Generated by graphviz version 2.40.1 (20161225.0304)
 -->
<!-- Title: submits Pages: 1 -->
<svg width="1038pt" height="1529pt"
 viewBox="0.00 0.00 1038.00 1529.00" xmlns="http://www.w3.org/2000/svg" xmlns:xlink="http://www.w3.org/1999/xlink">
<g id="graph0" class="graph" transform="scale(1 1) rotate(0) translate(4 1525)">
<title>submits</title>
<polygon fill="#ffffff" stroke="transparent" points="-4,4 -4,-1525 1034,-1525 1034,4 -4,4"/>
<!-- submits -->
<g id="node1" class="node">
<title>submits</title>
<polygon fill="#efefef" stroke="transparent" points="292,-892.5 292,-927.5 751,-927.5 751,-892.5 292,-892.5"/>
<polygon fill="none" stroke="#000000" points="292,-892.5 292,-927.5 751,-927.5 751,-892.5 292,-892.5"/>
<text text-anchor="start" x="426.7155" y="-905.3" font-family="Arial Bold" font-size="18.00" fill="#000000">submits</text>
<text text-anchor="start" x="488.7165" y="-905.3" font-family="Arial" font-size="14.00" fill="#000000">    </text>
<text text-anchor="start" x="522.9213" y="-905.3" font-family="Arial" font-size="14.00" fill="#666666">[BASE TABLE]</text>
<polygon fill="none" stroke="#000000" points="292,-862.5 292,-892.5 751,-892.5 751,-862.5 292,-862.5"/>
<text text-anchor="start" x="299" y="-873.9" font-family="Arial" font-size="14.00" fill="#000000">id </text>
<text text-anchor="start" x="313.7798" y="-873.9" font-family="Arial" font-size="14.00" fill="#666666">[bigint]</text>
<polygon fill="none" stroke="#000000" points="292,-832.5 292,-862.5 751,-862.5 751,-832.5 292,-832.5"/>
<text text-anchor="start" x="299" y="-843.9" font-family="Arial" font-size="14.00" fill="#000000">url </text>
<text text-anchor="start" x="318.4404" y="-843.9" font-family="Arial" font-size="14.00" fill="#666666">[varchar(255)]</text>
<polygon fill="none" stroke="#000000" points="292,-802.5 292,-832.5 751,-832.5 751,-802.5 292,-802.5"/>
<text text-anchor="start" x="299" y="-813.9" font-family="Arial" font-size="14.00" fill="#000000">score </text>
<text text-anchor="start" x="337.1164" y="-813.9" font-family="Arial" font-size="14.00" fill="#666666">[bigint]</text>
<polygon fill="none" stroke="#000000" points="292,-772.5 292,-802.5 751,-802.5 751,-772.5 292,-772.5"/>
<text text-anchor="start" x="298.7593" y="-783.9" font-family="Arial" font-size="14.00" fill="#000000">language </text>
<text text-anchor="start" x="360.2347" y="-783.9" font-family="Arial" font-size="14.00" fill="#666666">[enum(&#39;php&#39;,&#39;go&#39;,&#39;rust&#39;,&#39;javascript&#39;,&#39;csharp&#39;,&#39;cpp&#39;,&#39;ruby&#39;,&#39;python&#39;)]</text>
<polygon fill="none" stroke="#000000" points="292,-742.5 292,-772.5 751,-772.5 751,-742.5 292,-742.5"/>
<text text-anchor="start" x="299" y="-753.9" font-family="Arial" font-size="14.00" fill="#000000">message </text>
<text text-anchor="start" x="359.6816" y="-753.9" font-family="Arial" font-size="14.00" fill="#666666">[varchar(255)]</text>
<polygon fill="none" stroke="#000000" points="292,-712.5 292,-742.5 751,-742.5 751,-712.5 292,-712.5"/>
<text text-anchor="start" x="299" y="-723.9" font-family="Arial" font-size="14.00" fill="#000000">status </text>
<text text-anchor="start" x="340.237" y="-723.9" font-family="Arial" font-size="14.00" fill="#666666">[varchar(255)]</text>
<polygon fill="none" stroke="#000000" points="292,-682.5 292,-712.5 751,-712.5 751,-682.5 292,-682.5"/>
<text text-anchor="start" x="299" y="-693.9" font-family="Arial" font-size="14.00" fill="#000000">task_num </text>
<text text-anchor="start" x="363.5722" y="-693.9" font-family="Arial" font-size="14.00" fill="#666666">[bigint]</text>
<polygon fill="none" stroke="#000000" points="292,-652.5 292,-682.5 751,-682.5 751,-652.5 292,-652.5"/>
<text text-anchor="start" x="299" y="-663.9" font-family="Arial" font-size="14.00" fill="#000000">submited_at </text>
<text text-anchor="start" x="379.1346" y="-663.9" font-family="Arial" font-size="14.00" fill="#666666">[timestamp]</text>
<polygon fill="none" stroke="#000000" points="292,-622.5 292,-652.5 751,-652.5 751,-622.5 292,-622.5"/>
<text text-anchor="start" x="299" y="-633.9" font-family="Arial" font-size="14.00" fill="#000000">completed_at </text>
<text text-anchor="start" x="386.9172" y="-633.9" font-family="Arial" font-size="14.00" fill="#666666">[timestamp]</text>
<polygon fill="none" stroke="#000000" points="292,-592.5 292,-622.5 751,-622.5 751,-592.5 292,-592.5"/>
<text text-anchor="start" x="299" y="-603.9" font-family="Arial" font-size="14.00" fill="#000000">updated_at </text>
<text text-anchor="start" x="372.9326" y="-603.9" font-family="Arial" font-size="14.00" fill="#666666">[timestamp]</text>
<polygon fill="none" stroke="#000000" points="292,-562.5 292,-592.5 751,-592.5 751,-562.5 292,-562.5"/>
<text text-anchor="start" x="299" y="-573.9" font-family="Arial" font-size="14.00" fill="#000000">contest_submits </text>
<text text-anchor="start" x="404.0252" y="-573.9" font-family="Arial" font-size="14.00" fill="#666666">[bigint]</text>
<polygon fill="none" stroke="#000000" points="292,-532.5 292,-562.5 751,-562.5 751,-532.5 292,-532.5"/>
<text text-anchor="start" x="299" y="-543.9" font-family="Arial" font-size="14.00" fill="#000000">group_submits </text>
<text text-anchor="start" x="394.6872" y="-543.9" font-family="Arial" font-size="14.00" fill="#666666">[bigint]</text>
<polygon fill="none" stroke="#000000" stroke-width="3" points="290,-531.5 290,-929.5 752,-929.5 752,-531.5 290,-531.5"/>
</g>
<!-- contests -->
<g id="node3" class="node">
<title>contests</title>
<polygon fill="#efefef" stroke="transparent" points="173,-372.5 173,-407.5 481,-407.5 481,-372.5 173,-372.5"/>
<polygon fill="none" stroke="#000000" points="173,-372.5 173,-407.5 481,-407.5 481,-372.5 173,-372.5"/>
<text text-anchor="start" x="229.7045" y="-385.3" font-family="Arial Bold" font-size="18.00" fill="#000000">contests</text>
<text text-anchor="start" x="296.7275" y="-385.3" font-family="Arial" font-size="14.00" fill="#000000">    </text>
<text text-anchor="start" x="330.9323" y="-385.3" font-family="Arial" font-size="14.00" fill="#666666">[BASE TABLE]</text>
<polygon fill="none" stroke="#000000" points="173,-342.5 173,-372.5 481,-372.5 481,-342.5 173,-342.5"/>
<text text-anchor="start" x="180" y="-353.9" font-family="Arial" font-size="14.00" fill="#000000">id    </text>
<text text-anchor="start" x="225.094" y="-353.9" font-family="Arial" font-size="14.00" fill="#666666">[bigint]</text>
<polygon fill="none" stroke="#000000" points="173,-312.5 173,-342.5 481,-342.5 481,-312.5 173,-312.5"/>
<text text-anchor="start" x="180" y="-323.9" font-family="Arial" font-size="14.00" fill="#000000">title    </text>
<text text-anchor="start" x="235.9818" y="-323.9" font-family="Arial" font-size="14.00" fill="#666666">[varchar(255)]</text>
<polygon fill="none" stroke="#000000" points="173,-282.5 173,-312.5 481,-312.5 481,-282.5 173,-282.5"/>
<text text-anchor="start" x="180" y="-293.9" font-family="Arial" font-size="14.00" fill="#000000">start_at    </text>
<text text-anchor="start" x="260.885" y="-293.9" font-family="Arial" font-size="14.00" fill="#666666">[timestamp]</text>
<polygon fill="none" stroke="#000000" points="173,-252.5 173,-282.5 481,-282.5 481,-252.5 173,-252.5"/>
<text text-anchor="start" x="180" y="-263.9" font-family="Arial" font-size="14.00" fill="#000000">end_at    </text>
<text text-anchor="start" x="257.0084" y="-263.9" font-family="Arial" font-size="14.00" fill="#666666">[timestamp]</text>
<polygon fill="none" stroke="#000000" points="173,-222.5 173,-252.5 481,-252.5 481,-222.5 173,-222.5"/>
<text text-anchor="start" x="180" y="-233.9" font-family="Arial" font-size="14.00" fill="#000000">submit_limit    </text>
<text text-anchor="start" x="288.0814" y="-233.9" font-family="Arial" font-size="14.00" fill="#666666">[bigint]</text>
<polygon fill="none" stroke="#000000" points="173,-192.5 173,-222.5 481,-222.5 481,-192.5 173,-192.5"/>
<text text-anchor="start" x="180" y="-203.9" font-family="Arial" font-size="14.00" fill="#000000">slug    </text>
<text text-anchor="start" x="239.8766" y="-203.9" font-family="Arial" font-size="14.00" fill="#666666">[varchar(255)]</text>
<polygon fill="none" stroke="#000000" points="173,-162.5 173,-192.5 481,-192.5 481,-162.5 173,-162.5"/>
<text text-anchor="start" x="179.6269" y="-173.9" font-family="Arial" font-size="14.00" fill="#000000">tag_selection_logic    </text>
<text text-anchor="start" x="332.8653" y="-173.9" font-family="Arial" font-size="14.00" fill="#666666">[enum(&#39;auto&#39;,&#39;manual&#39;)]</text>
<polygon fill="none" stroke="#000000" points="173,-132.5 173,-162.5 481,-162.5 481,-132.5 173,-132.5"/>
<text text-anchor="start" x="180" y="-143.9" font-family="Arial" font-size="14.00" fill="#000000">validator    </text>
<text text-anchor="start" x="267.0996" y="-143.9" font-family="Arial" font-size="14.00" fill="#666666">[varchar(255)]</text>
<polygon fill="none" stroke="#000000" points="173,-102.5 173,-132.5 481,-132.5 481,-102.5 173,-102.5"/>
<text text-anchor="start" x="180" y="-113.9" font-family="Arial" font-size="14.00" fill="#000000">time_limit_per_task    </text>
<text text-anchor="start" x="334.763" y="-113.9" font-family="Arial" font-size="14.00" fill="#666666">[bigint]</text>
<polygon fill="none" stroke="#000000" points="173,-72.5 173,-102.5 481,-102.5 481,-72.5 173,-72.5"/>
<text text-anchor="start" x="180" y="-83.9" font-family="Arial" font-size="14.00" fill="#000000">created_at    </text>
<text text-anchor="start" x="280.3422" y="-83.9" font-family="Arial" font-size="14.00" fill="#666666">[timestamp]</text>
<polygon fill="none" stroke="#000000" points="173,-42.5 173,-72.5 481,-72.5 481,-42.5 173,-42.5"/>
<text text-anchor="start" x="180" y="-53.9" font-family="Arial" font-size="14.00" fill="#000000">updated_at    </text>
<text text-anchor="start" x="284.2468" y="-53.9" font-family="Arial" font-size="14.00" fill="#666666">[timestamp]</text>
</g>
<!-- submits&#45;&gt;contests -->
<g id="edge2" class="edge">
<title>submits:contest_submits&#45;&gt;contests:id</title>
<path fill="none" stroke="#000000" d="M282.0964,-576.0034C254.6086,-566.5922 268.7612,-515.0831 292,-487 346.5153,-421.1207 426.4847,-516.8793 481,-451 507.4929,-418.9845 522.5556,-357.5 481,-357.5"/>
<polygon fill="#000000" stroke="#000000" points="282.1123,-576.0057 291.3276,-581.9495 287.0561,-576.7528 292,-577.5 292,-577.5 292,-577.5 287.0561,-576.7528 292.6724,-573.0505 282.1123,-576.0057 282.1123,-576.0057"/>
<text text-anchor="start" x="6.8235" y="-587.5" font-family="Arial" font-size="10.00" fill="#000000">FOREIGN KEY (contest_submits) REFERENCES contests (id)</text>
</g>
<!-- groups -->
<g id="node4" class="node">
<title>groups</title>
<polygon fill="#efefef" stroke="transparent" points="585,-312.5 585,-347.5 849,-347.5 849,-312.5 585,-312.5"/>
<polygon fill="none" stroke="#000000" points="585,-312.5 585,-347.5 849,-347.5 849,-312.5 585,-312.5"/>
<text text-anchor="start" x="625.7075" y="-325.3" font-family="Arial Bold" font-size="18.00" fill="#000000">groups</text>
<text text-anchor="start" x="680.7245" y="-325.3" font-family="Arial" font-size="14.00" fill="#000000">    </text>
<text text-anchor="start" x="714.9293" y="-325.3" font-family="Arial" font-size="14.00" fill="#666666">[BASE TABLE]</text>
<polygon fill="none" stroke="#000000" points="585,-282.5 585,-312.5 849,-312.5 849,-282.5 585,-282.5"/>
<text text-anchor="start" x="592" y="-293.9" font-family="Arial" font-size="14.00" fill="#000000">id    </text>
<text text-anchor="start" x="637.094" y="-293.9" font-family="Arial" font-size="14.00" fill="#666666">[bigint]</text>
<polygon fill="none" stroke="#000000" points="585,-252.5 585,-282.5 849,-282.5 849,-252.5 585,-252.5"/>
<text text-anchor="start" x="592" y="-263.9" font-family="Arial" font-size="14.00" fill="#000000">name    </text>
<text text-anchor="start" x="661.2132" y="-263.9" font-family="Arial" font-size="14.00" fill="#666666">[varchar(255)]</text>
<polygon fill="none" stroke="#000000" points="585,-222.5 585,-252.5 849,-252.5 849,-222.5 585,-222.5"/>
<text text-anchor="start" x="592" y="-233.9" font-family="Arial" font-size="14.00" fill="#000000">role    </text>
<text text-anchor="start" x="649.5372" y="-233.9" font-family="Arial" font-size="14.00" fill="#666666">[varchar(255)]</text>
<polygon fill="none" stroke="#000000" points="585,-192.5 585,-222.5 849,-222.5 849,-192.5 585,-192.5"/>
<text text-anchor="start" x="592" y="-203.9" font-family="Arial" font-size="14.00" fill="#000000">year    </text>
<text text-anchor="start" x="653.4306" y="-203.9" font-family="Arial" font-size="14.00" fill="#666666">[bigint]</text>
<polygon fill="none" stroke="#000000" points="585,-162.5 585,-192.5 849,-192.5 849,-162.5 585,-162.5"/>
<text text-anchor="start" x="591.7658" y="-173.9" font-family="Arial" font-size="14.00" fill="#000000">encrypted_password    </text>
<text text-anchor="start" x="755.115" y="-173.9" font-family="Arial" font-size="14.00" fill="#666666">[varchar(255)]</text>
<polygon fill="none" stroke="#000000" points="585,-132.5 585,-162.5 849,-162.5 849,-132.5 585,-132.5"/>
<text text-anchor="start" x="592" y="-143.9" font-family="Arial" font-size="14.00" fill="#000000">created_at    </text>
<text text-anchor="start" x="692.3422" y="-143.9" font-family="Arial" font-size="14.00" fill="#666666">[timestamp]</text>
<polygon fill="none" stroke="#000000" points="585,-102.5 585,-132.5 849,-132.5 849,-102.5 585,-102.5"/>
<text text-anchor="start" x="592" y="-113.9" font-family="Arial" font-size="14.00" fill="#000000">updated_at    </text>
<text text-anchor="start" x="696.2468" y="-113.9" font-family="Arial" font-size="14.00" fill="#666666">[timestamp]</text>
</g>
<!-- submits&#45;&gt;groups -->
<g id="edge3" class="edge">
<title>submits:group_submits&#45;&gt;groups:id</title>
<path fill="none" stroke="#000000" d="M760.8034,-544.9698C773.6853,-536.2121 762.3367,-506.652 751,-487 708.4133,-413.1761 627.5867,-464.8239 585,-391 564.2352,-355.0043 543.4444,-297.5 585,-297.5"/>
<polygon fill="#000000" stroke="#000000" points="760.6827,-545.0009 749.8754,-543.1428 755.8414,-546.2504 751,-547.5 751,-547.5 751,-547.5 755.8414,-546.2504 752.1246,-551.8572 760.6827,-545.0009 760.6827,-545.0009"/>
<text text-anchor="start" x="758.4935" y="-557.5" font-family="Arial" font-size="10.00" fill="#000000">FOREIGN KEY (group_submits) REFERENCES groups (id)</text>
</g>
<!-- task_results -->
<g id="node2" class="node">
<title>task_results</title>
<polygon fill="#efefef" stroke="transparent" points="387,-1442.5 387,-1477.5 656,-1477.5 656,-1442.5 387,-1442.5"/>
<polygon fill="none" stroke="#000000" points="387,-1442.5 387,-1477.5 656,-1477.5 656,-1442.5 387,-1442.5"/>
<text text-anchor="start" x="409.7082" y="-1455.3" font-family="Arial Bold" font-size="18.00" fill="#000000">task_results</text>
<text text-anchor="start" x="505.7238" y="-1455.3" font-family="Arial" font-size="14.00" fill="#000000">    </text>
<text text-anchor="start" x="539.9286" y="-1455.3" font-family="Arial" font-size="14.00" fill="#666666">[BASE TABLE]</text>
<polygon fill="none" stroke="#000000" points="387,-1412.5 387,-1442.5 656,-1442.5 656,-1412.5 387,-1412.5"/>
<text text-anchor="start" x="394" y="-1423.9" font-family="Arial" font-size="14.00" fill="#000000">id    </text>
<text text-anchor="start" x="439.094" y="-1423.9" font-family="Arial" font-size="14.00" fill="#666666">[bigint]</text>
<polygon fill="none" stroke="#000000" points="387,-1382.5 387,-1412.5 656,-1412.5 656,-1382.5 387,-1382.5"/>
<text text-anchor="start" x="394" y="-1393.9" font-family="Arial" font-size="14.00" fill="#000000">request_per_sec    </text>
<text text-anchor="start" x="532.46" y="-1393.9" font-family="Arial" font-size="14.00" fill="#666666">[bigint]</text>
<polygon fill="none" stroke="#000000" points="387,-1352.5 387,-1382.5 656,-1382.5 656,-1352.5 387,-1352.5"/>
<text text-anchor="start" x="394" y="-1363.9" font-family="Arial" font-size="14.00" fill="#000000">status    </text>
<text text-anchor="start" x="465.5512" y="-1363.9" font-family="Arial" font-size="14.00" fill="#666666">[varchar(255)]</text>
<polygon fill="none" stroke="#000000" points="387,-1322.5 387,-1352.5 656,-1352.5 656,-1322.5 387,-1322.5"/>
<text text-anchor="start" x="394" y="-1333.9" font-family="Arial" font-size="14.00" fill="#000000">error_message    </text>
<text text-anchor="start" x="522.3254" y="-1333.9" font-family="Arial" font-size="14.00" fill="#666666">[varchar(255)]</text>
<polygon fill="none" stroke="#000000" points="387,-1292.5 387,-1322.5 656,-1322.5 656,-1292.5 387,-1292.5"/>
<text text-anchor="start" x="394" y="-1303.9" font-family="Arial" font-size="14.00" fill="#000000">url    </text>
<text text-anchor="start" x="443.7546" y="-1303.9" font-family="Arial" font-size="14.00" fill="#666666">[varchar(255)]</text>
<polygon fill="none" stroke="#000000" points="387,-1262.5 387,-1292.5 656,-1292.5 656,-1262.5 387,-1262.5"/>
<text text-anchor="start" x="394" y="-1273.9" font-family="Arial" font-size="14.00" fill="#000000">method    </text>
<text text-anchor="start" x="474.8864" y="-1273.9" font-family="Arial" font-size="14.00" fill="#666666">[varchar(255)]</text>
<polygon fill="none" stroke="#000000" points="387,-1232.5 387,-1262.5 656,-1262.5 656,-1232.5 387,-1232.5"/>
<text text-anchor="start" x="393.5309" y="-1243.9" font-family="Arial" font-size="14.00" fill="#000000">request_content_type    </text>
<text text-anchor="start" x="562.3499" y="-1243.9" font-family="Arial" font-size="14.00" fill="#666666">[varchar(255)]</text>
<polygon fill="none" stroke="#000000" points="387,-1202.5 387,-1232.5 656,-1232.5 656,-1202.5 387,-1202.5"/>
<text text-anchor="start" x="394" y="-1213.9" font-family="Arial" font-size="14.00" fill="#000000">request_body    </text>
<text text-anchor="start" x="513.0168" y="-1213.9" font-family="Arial" font-size="14.00" fill="#666666">[varchar(255)]</text>
<polygon fill="none" stroke="#000000" points="387,-1172.5 387,-1202.5 656,-1202.5 656,-1172.5 387,-1172.5"/>
<text text-anchor="start" x="394" y="-1183.9" font-family="Arial" font-size="14.00" fill="#000000">thread_num    </text>
<text text-anchor="start" x="502.8948" y="-1183.9" font-family="Arial" font-size="14.00" fill="#666666">[bigint]</text>
<polygon fill="none" stroke="#000000" points="387,-1142.5 387,-1172.5 656,-1172.5 656,-1142.5 387,-1142.5"/>
<text text-anchor="start" x="394" y="-1153.9" font-family="Arial" font-size="14.00" fill="#000000">attempt_count    </text>
<text text-anchor="start" x="516.906" y="-1153.9" font-family="Arial" font-size="14.00" fill="#666666">[bigint]</text>
<polygon fill="none" stroke="#000000" points="387,-1112.5 387,-1142.5 656,-1142.5 656,-1112.5 387,-1112.5"/>
<text text-anchor="start" x="394" y="-1123.9" font-family="Arial" font-size="14.00" fill="#000000">created_at    </text>
<text text-anchor="start" x="494.3422" y="-1123.9" font-family="Arial" font-size="14.00" fill="#666666">[timestamp]</text>
<polygon fill="none" stroke="#000000" points="387,-1082.5 387,-1112.5 656,-1112.5 656,-1082.5 387,-1082.5"/>
<text text-anchor="start" x="394" y="-1093.9" font-family="Arial" font-size="14.00" fill="#000000">deleted_at    </text>
<text text-anchor="start" x="493.5708" y="-1093.9" font-family="Arial" font-size="14.00" fill="#666666">[timestamp]</text>
<polygon fill="none" stroke="#000000" points="387,-1052.5 387,-1082.5 656,-1082.5 656,-1052.5 387,-1052.5"/>
<text text-anchor="start" x="394" y="-1063.9" font-family="Arial" font-size="14.00" fill="#000000">submit_task_results    </text>
<text text-anchor="start" x="551.8892" y="-1063.9" font-family="Arial" font-size="14.00" fill="#666666">[bigint]</text>
</g>
<!-- task_results&#45;&gt;submits -->
<g id="edge1" class="edge">
<title>task_results:submit_task_results&#45;&gt;submits:id</title>
<path fill="none" stroke="#000000" d="M521.4571,-1042.4706C511.0147,-952.0552 352.7553,-1058.9325 292,-974 267.0471,-939.1172 249.1111,-877.5 292,-877.5"/>
<polygon fill="#000000" stroke="#000000" points="521.4594,-1042.5146 517.5066,-1052.7433 521.7297,-1047.5073 522,-1052.5 522,-1052.5 522,-1052.5 521.7297,-1047.5073 526.4934,-1052.2567 521.4594,-1042.5146 521.4594,-1042.5146"/>
<text text-anchor="start" x="529.165" y="-1062.5" font-family="Arial" font-size="10.00" fill="#000000">FOREIGN KEY (submit_task_results) REFERENCES submits (id)</text>
</g>
</g>
</svg>
