<?xml version="1.0" encoding="UTF-8" standalone="no"?>
<!DOCTYPE svg PUBLIC "-//W3C//DTD SVG 1.1//EN"
 "http://www.w3.org/Graphics/SVG/1.1/DTD/svg11.dtd">
<!-- Generated by graphviz version 2.40.1 (20161225.0304)
 -->
<!-- Title: task_results Pages: 1 -->
<svg width="602pt" height="1042pt"
 viewBox="0.00 0.00 601.50 1042.00" xmlns="http://www.w3.org/2000/svg" xmlns:xlink="http://www.w3.org/1999/xlink">
<g id="graph0" class="graph" transform="scale(1 1) rotate(0) translate(4 1038)">
<title>task_results</title>
<polygon fill="#ffffff" stroke="transparent" points="-4,4 -4,-1038 597.5,-1038 597.5,4 -4,4"/>
<!-- task_results -->
<g id="node1" class="node">
<title>task_results</title>
<polygon fill="#efefef" stroke="transparent" points="168.5,-952.5 168.5,-987.5 407.5,-987.5 407.5,-952.5 168.5,-952.5"/>
<polygon fill="none" stroke="#000000" points="168.5,-952.5 168.5,-987.5 407.5,-987.5 407.5,-952.5 168.5,-952.5"/>
<text text-anchor="start" x="176.2082" y="-965.3" font-family="Arial Bold" font-size="18.00" fill="#000000">task_results</text>
<text text-anchor="start" x="272.2238" y="-965.3" font-family="Arial" font-size="14.00" fill="#000000">    </text>
<text text-anchor="start" x="306.4286" y="-965.3" font-family="Arial" font-size="14.00" fill="#666666">[BASE TABLE]</text>
<polygon fill="none" stroke="#000000" points="168.5,-922.5 168.5,-952.5 407.5,-952.5 407.5,-922.5 168.5,-922.5"/>
<text text-anchor="start" x="175.5" y="-933.9" font-family="Arial" font-size="14.00" fill="#000000">id </text>
<text text-anchor="start" x="190.2798" y="-933.9" font-family="Arial" font-size="14.00" fill="#666666">[bigint]</text>
<polygon fill="none" stroke="#000000" points="168.5,-892.5 168.5,-922.5 407.5,-922.5 407.5,-892.5 168.5,-892.5"/>
<text text-anchor="start" x="175.5" y="-903.9" font-family="Arial" font-size="14.00" fill="#000000">request_per_sec </text>
<text text-anchor="start" x="283.6458" y="-903.9" font-family="Arial" font-size="14.00" fill="#666666">[bigint]</text>
<polygon fill="none" stroke="#000000" points="168.5,-862.5 168.5,-892.5 407.5,-892.5 407.5,-862.5 168.5,-862.5"/>
<text text-anchor="start" x="175.5" y="-873.9" font-family="Arial" font-size="14.00" fill="#000000">status </text>
<text text-anchor="start" x="216.737" y="-873.9" font-family="Arial" font-size="14.00" fill="#666666">[varchar(255)]</text>
<polygon fill="none" stroke="#000000" points="168.5,-832.5 168.5,-862.5 407.5,-862.5 407.5,-832.5 168.5,-832.5"/>
<text text-anchor="start" x="175.5" y="-843.9" font-family="Arial" font-size="14.00" fill="#000000">error_message </text>
<text text-anchor="start" x="273.5112" y="-843.9" font-family="Arial" font-size="14.00" fill="#666666">[varchar(255)]</text>
<polygon fill="none" stroke="#000000" points="168.5,-802.5 168.5,-832.5 407.5,-832.5 407.5,-802.5 168.5,-802.5"/>
<text text-anchor="start" x="175.5" y="-813.9" font-family="Arial" font-size="14.00" fill="#000000">url </text>
<text text-anchor="start" x="194.9404" y="-813.9" font-family="Arial" font-size="14.00" fill="#666666">[varchar(255)]</text>
<polygon fill="none" stroke="#000000" points="168.5,-772.5 168.5,-802.5 407.5,-802.5 407.5,-772.5 168.5,-772.5"/>
<text text-anchor="start" x="175.5" y="-783.9" font-family="Arial" font-size="14.00" fill="#000000">method </text>
<text text-anchor="start" x="226.0722" y="-783.9" font-family="Arial" font-size="14.00" fill="#666666">[varchar(255)]</text>
<polygon fill="none" stroke="#000000" points="168.5,-742.5 168.5,-772.5 407.5,-772.5 407.5,-742.5 168.5,-742.5"/>
<text text-anchor="start" x="175.188" y="-753.9" font-family="Arial" font-size="14.00" fill="#000000">request_content_type </text>
<text text-anchor="start" x="313.6928" y="-753.9" font-family="Arial" font-size="14.00" fill="#666666">[varchar(255)]</text>
<polygon fill="none" stroke="#000000" points="168.5,-712.5 168.5,-742.5 407.5,-742.5 407.5,-712.5 168.5,-712.5"/>
<text text-anchor="start" x="175.5" y="-723.9" font-family="Arial" font-size="14.00" fill="#000000">request_body </text>
<text text-anchor="start" x="264.2026" y="-723.9" font-family="Arial" font-size="14.00" fill="#666666">[varchar(255)]</text>
<polygon fill="none" stroke="#000000" points="168.5,-682.5 168.5,-712.5 407.5,-712.5 407.5,-682.5 168.5,-682.5"/>
<text text-anchor="start" x="175.5" y="-693.9" font-family="Arial" font-size="14.00" fill="#000000">thread_num </text>
<text text-anchor="start" x="254.0806" y="-693.9" font-family="Arial" font-size="14.00" fill="#666666">[bigint]</text>
<polygon fill="none" stroke="#000000" points="168.5,-652.5 168.5,-682.5 407.5,-682.5 407.5,-652.5 168.5,-652.5"/>
<text text-anchor="start" x="175.5" y="-663.9" font-family="Arial" font-size="14.00" fill="#000000">attempt_count </text>
<text text-anchor="start" x="268.0918" y="-663.9" font-family="Arial" font-size="14.00" fill="#666666">[bigint]</text>
<polygon fill="none" stroke="#000000" points="168.5,-622.5 168.5,-652.5 407.5,-652.5 407.5,-622.5 168.5,-622.5"/>
<text text-anchor="start" x="175.5" y="-633.9" font-family="Arial" font-size="14.00" fill="#000000">created_at </text>
<text text-anchor="start" x="245.528" y="-633.9" font-family="Arial" font-size="14.00" fill="#666666">[timestamp]</text>
<polygon fill="none" stroke="#000000" points="168.5,-592.5 168.5,-622.5 407.5,-622.5 407.5,-592.5 168.5,-592.5"/>
<text text-anchor="start" x="175.5" y="-603.9" font-family="Arial" font-size="14.00" fill="#000000">deleted_at </text>
<text text-anchor="start" x="244.7566" y="-603.9" font-family="Arial" font-size="14.00" fill="#666666">[timestamp]</text>
<polygon fill="none" stroke="#000000" points="168.5,-562.5 168.5,-592.5 407.5,-592.5 407.5,-562.5 168.5,-562.5"/>
<text text-anchor="start" x="175.5" y="-573.9" font-family="Arial" font-size="14.00" fill="#000000">submit_task_results </text>
<text text-anchor="start" x="303.075" y="-573.9" font-family="Arial" font-size="14.00" fill="#666666">[bigint]</text>
<polygon fill="none" stroke="#000000" stroke-width="3" points="166.5,-561.5 166.5,-989.5 408.5,-989.5 408.5,-561.5 166.5,-561.5"/>
</g>
<!-- submits -->
<g id="node2" class="node">
<title>submits</title>
<polygon fill="#efefef" stroke="transparent" points="43.5,-402.5 43.5,-437.5 532.5,-437.5 532.5,-402.5 43.5,-402.5"/>
<polygon fill="none" stroke="#000000" points="43.5,-402.5 43.5,-437.5 532.5,-437.5 532.5,-402.5 43.5,-402.5"/>
<text text-anchor="start" x="193.2155" y="-415.3" font-family="Arial Bold" font-size="18.00" fill="#000000">submits</text>
<text text-anchor="start" x="255.2165" y="-415.3" font-family="Arial" font-size="14.00" fill="#000000">    </text>
<text text-anchor="start" x="289.4213" y="-415.3" font-family="Arial" font-size="14.00" fill="#666666">[BASE TABLE]</text>
<polygon fill="none" stroke="#000000" points="43.5,-372.5 43.5,-402.5 532.5,-402.5 532.5,-372.5 43.5,-372.5"/>
<text text-anchor="start" x="50.5" y="-383.9" font-family="Arial" font-size="14.00" fill="#000000">id    </text>
<text text-anchor="start" x="95.594" y="-383.9" font-family="Arial" font-size="14.00" fill="#666666">[bigint]</text>
<polygon fill="none" stroke="#000000" points="43.5,-342.5 43.5,-372.5 532.5,-372.5 532.5,-342.5 43.5,-342.5"/>
<text text-anchor="start" x="50.5" y="-353.9" font-family="Arial" font-size="14.00" fill="#000000">url    </text>
<text text-anchor="start" x="100.2546" y="-353.9" font-family="Arial" font-size="14.00" fill="#666666">[varchar(255)]</text>
<polygon fill="none" stroke="#000000" points="43.5,-312.5 43.5,-342.5 532.5,-342.5 532.5,-312.5 43.5,-312.5"/>
<text text-anchor="start" x="50.5" y="-323.9" font-family="Arial" font-size="14.00" fill="#000000">score    </text>
<text text-anchor="start" x="118.9306" y="-323.9" font-family="Arial" font-size="14.00" fill="#666666">[bigint]</text>
<polygon fill="none" stroke="#000000" points="43.5,-282.5 43.5,-312.5 532.5,-312.5 532.5,-282.5 43.5,-282.5"/>
<text text-anchor="start" x="50.1022" y="-293.9" font-family="Arial" font-size="14.00" fill="#000000">language    </text>
<text text-anchor="start" x="141.8918" y="-293.9" font-family="Arial" font-size="14.00" fill="#666666">[enum(&#39;php&#39;,&#39;go&#39;,&#39;rust&#39;,&#39;javascript&#39;,&#39;csharp&#39;,&#39;cpp&#39;,&#39;ruby&#39;,&#39;python&#39;)]</text>
<polygon fill="none" stroke="#000000" points="43.5,-252.5 43.5,-282.5 532.5,-282.5 532.5,-252.5 43.5,-252.5"/>
<text text-anchor="start" x="50.5" y="-263.9" font-family="Arial" font-size="14.00" fill="#000000">message    </text>
<text text-anchor="start" x="141.4958" y="-263.9" font-family="Arial" font-size="14.00" fill="#666666">[varchar(255)]</text>
<polygon fill="none" stroke="#000000" points="43.5,-222.5 43.5,-252.5 532.5,-252.5 532.5,-222.5 43.5,-222.5"/>
<text text-anchor="start" x="50.5" y="-233.9" font-family="Arial" font-size="14.00" fill="#000000">status    </text>
<text text-anchor="start" x="122.0512" y="-233.9" font-family="Arial" font-size="14.00" fill="#666666">[varchar(255)]</text>
<polygon fill="none" stroke="#000000" points="43.5,-192.5 43.5,-222.5 532.5,-222.5 532.5,-192.5 43.5,-192.5"/>
<text text-anchor="start" x="50.5" y="-203.9" font-family="Arial" font-size="14.00" fill="#000000">task_num    </text>
<text text-anchor="start" x="145.3864" y="-203.9" font-family="Arial" font-size="14.00" fill="#666666">[bigint]</text>
<polygon fill="none" stroke="#000000" points="43.5,-162.5 43.5,-192.5 532.5,-192.5 532.5,-162.5 43.5,-162.5"/>
<text text-anchor="start" x="50.5" y="-173.9" font-family="Arial" font-size="14.00" fill="#000000">submited_at    </text>
<text text-anchor="start" x="160.9488" y="-173.9" font-family="Arial" font-size="14.00" fill="#666666">[timestamp]</text>
<polygon fill="none" stroke="#000000" points="43.5,-132.5 43.5,-162.5 532.5,-162.5 532.5,-132.5 43.5,-132.5"/>
<text text-anchor="start" x="50.5" y="-143.9" font-family="Arial" font-size="14.00" fill="#000000">completed_at    </text>
<text text-anchor="start" x="168.7314" y="-143.9" font-family="Arial" font-size="14.00" fill="#666666">[timestamp]</text>
<polygon fill="none" stroke="#000000" points="43.5,-102.5 43.5,-132.5 532.5,-132.5 532.5,-102.5 43.5,-102.5"/>
<text text-anchor="start" x="50.5" y="-113.9" font-family="Arial" font-size="14.00" fill="#000000">updated_at    </text>
<text text-anchor="start" x="154.7468" y="-113.9" font-family="Arial" font-size="14.00" fill="#666666">[timestamp]</text>
<polygon fill="none" stroke="#000000" points="43.5,-72.5 43.5,-102.5 532.5,-102.5 532.5,-72.5 43.5,-72.5"/>
<text text-anchor="start" x="50.5" y="-83.9" font-family="Arial" font-size="14.00" fill="#000000">contest_submits    </text>
<text text-anchor="start" x="185.8394" y="-83.9" font-family="Arial" font-size="14.00" fill="#666666">[bigint]</text>
<polygon fill="none" stroke="#000000" points="43.5,-42.5 43.5,-72.5 532.5,-72.5 532.5,-42.5 43.5,-42.5"/>
<text text-anchor="start" x="50.5" y="-53.9" font-family="Arial" font-size="14.00" fill="#000000">group_submits    </text>
<text text-anchor="start" x="176.5014" y="-53.9" font-family="Arial" font-size="14.00" fill="#666666">[bigint]</text>
</g>
<!-- task_results&#45;&gt;submits -->
<g id="edge1" class="edge">
<title>task_results:submit_task_results&#45;&gt;submits:id</title>
<path fill="none" stroke="#000000" d="M287.9877,-552.4339C277.4911,-455.4258 108.5295,-571.1654 43.5,-481 19.1917,-447.2958 1.9444,-387.5 43.5,-387.5"/>
<polygon fill="#000000" stroke="#000000" points="287.9916,-552.5129 284.0058,-562.7288 288.2458,-557.5065 288.5,-562.5 288.5,-562.5 288.5,-562.5 288.2458,-557.5065 292.9942,-562.2712 287.9916,-552.5129 287.9916,-552.5129"/>
<text text-anchor="start" x="295.665" y="-572.5" font-family="Arial" font-size="10.00" fill="#000000">FOREIGN KEY (submit_task_results) REFERENCES submits (id)</text>
</g>
</g>
</svg>
